<?xml version="1.0" encoding="utf-8"?>
<!-- Generator: Adobe Illustrator 24.1.0, SVG Export Plug-In . SVG Version: 6.00 Build 0)  -->
<svg version="1.1"
	 id="svg2" xmlns:cc="http://creativecommons.org/ns#" xmlns:dc="http://purl.org/dc/elements/1.1/" xmlns:rdf="http://www.w3.org/1999/02/22-rdf-syntax-ns#" xmlns:svg="http://www.w3.org/2000/svg"
	 xmlns="http://www.w3.org/2000/svg" xmlns:xlink="http://www.w3.org/1999/xlink" x="0px" y="0px" viewBox="0 0 7328 3415.4"
	 style="enable-background:new 0 0 7328 3415.4;" xml:space="preserve">
<style type="text/css">
	.st0{fill:#666B6F;}
	.st1{fill:#CB1E2E;}
</style>
<g id="g10" transform="matrix(1.3333333,0,0,-1.3333333,0,3415.36)">
	<g id="g12" transform="scale(0.1)">
		<g id="g14" transform="scale(2.83656)">
			<path id="path16" class="st0" d="M9441.7,1983.1l-17.1,23.7c-527.2,735.9-809.8,1605-817.2,2513.7
				c-9.7,1170.5,437.2,2274.7,1258.2,3109.2c820.9,834.5,1917.6,1299.2,3088.2,1308.9l36.6,0.1c1215.3,0,2345.3-486.5,3181.8-1369.8
				l20.3-21.4l-1136.6-925.8l-17.6,17.3c-549.6,541-1277.2,838.9-2048.5,838.9l-24.2-0.1c-1611.1-13.2-2911-1334.5-2897.8-2945.4
				c4.7-575.4,176.4-1130.8,496.2-1605.8l14-20.9l-19.4-15.8L9441.7,1983.1"/>
		</g>
		<g id="g18" transform="scale(3.37178)">
			<path id="path20" class="st0" d="M16164.5,247.8h-1277.4v7226.1h1277.4V247.8"/>
		</g>
		<g id="g22" transform="scale(2.84464)">
			<path id="path24" class="st1" d="M14921.4,65.8v2815.6H11892l1502.5,1263.7h2797.7v-2826l-8.2-8.1L14921.4,65.8"/>
		</g>
		<g id="g26" transform="scale(1.56296)">
			<path id="path28" class="st0" d="M10903.1,6581.3L321.9,16135.1V612.2h2634.2v9348L13536.4,637.6v15449h-2633.3V6581.3"/>
		</g>
	</g>
</g>
</svg>
